# xmcd CD database file
#
# Track frame offsets:
#150
#19147
#38325
#59552
#79132
#97107
#116662
#134157
#154162
#170775
#
# Disc length: 2562 seconds
#
# Revision: 1
# Processed by: cddbd v1.5.1PL2 Copyright (c) Steve Scherf et al.
# Submitted via: CDex 1.51
#
DISCID=8a0a000a
DTITLE=小高恵美 - Powder snow
DYEAR=1989
DGENRE=Pop
TTITLE0=White Love
TTITLE1=One more time
TTITLE2=OMOIDE
TTITLE3=見つめて
TTITLE4=スタンス
TTITLE5=週末のシンデレラたち
TTITLE6=Attention
TTITLE7=冬空にオリオン
TTITLE8=恋したら
TTITLE9=クリスマスイヴのページ
EXTD=YEAR: 1989
EXTT0=
EXTT1=
EXTT2=
EXTT3=
EXTT4=
EXTT5=
EXTT6=
EXTT7=
EXTT8=
EXTT9=
PLAYORDER=
